# xmcd CD database file
#
# Track frame offsets:
#	150
#	19950
#	41758
#	60133
#	75361
#	89811
#	106757
#	125931
#	143641
#	161682
#	179308
#	203317
#	217016
#	240388
#
# Disc length: 3527 seconds
#
# Revision: 0
# Processed by: cddbd v1.5.1PL2 Copyright (c) Steve Scherf et al.
# Submitted via: Feurio! 1.68 - http://www.feurio.com
#
DISCID=b60dc50e
DTITLE=Mark Michaelson - In This World Bot Not Of It
DYEAR=2005
DGENRE=Country Rock
TTITLE0=Kickstart
TTITLE1=Goodbye Atlanta
TTITLE2=This Time
TTITLE3=John Law
TTITLE4=Good Timing
TTITLE5=Humdinger
TTITLE6=Down In Louisiana
TTITLE7=Man Of Constant Sorrow
TTITLE8=Can't Hold Out
TTITLE9=It's A Mistake
TTITLE10=Leavin' Wind
TTITLE11=Down Here On Earth Below
TTITLE12=If
TTITLE13=Road Less Traveled
EXTD=
EXTT0=
EXTT1=
EXTT2=
EXTT3=
EXTT4=
EXTT5=
EXTT6=
EXTT7=
EXTT8=
EXTT9=
EXTT10=
EXTT11=
EXTT12=
EXTT13=
PLAYORDER=
